<?xml version="1.0" encoding="UTF-8" standalone="no"?>
<!-- Created with Inkscape (http://www.inkscape.org/) -->

<svg
   width="262.12177mm"
   height="122.28222mm"
   viewBox="0 0 262.12177 122.28222"
   version="1.1"
   id="svg1"
   xml:space="preserve"
   sodipodi:docname="QED_Logo_mixedcolor.svg"
   inkscape:version="1.4.2 (f4327f4, 2025-05-13)"
   xmlns:inkscape="http://www.inkscape.org/namespaces/inkscape"
   xmlns:sodipodi="http://sodipodi.sourceforge.net/DTD/sodipodi-0.dtd"
   xmlns="http://www.w3.org/2000/svg"
   xmlns:svg="http://www.w3.org/2000/svg"><sodipodi:namedview
     id="namedview1"
     pagecolor="#ffffff"
     bordercolor="#000000"
     borderopacity="0.25"
     inkscape:showpageshadow="2"
     inkscape:pageopacity="0.0"
     inkscape:pagecheckerboard="0"
     inkscape:deskcolor="#d1d1d1"
     inkscape:document-units="mm"
     showgrid="false"
     inkscape:zoom="0.96"
     inkscape:cx="604.16667"
     inkscape:cy="231.77083"
     inkscape:window-width="3840"
     inkscape:window-height="2071"
     inkscape:window-x="-9"
     inkscape:window-y="-9"
     inkscape:window-maximized="1"
     inkscape:current-layer="layer1" /><defs
     id="defs1"><linearGradient
       id="swatch1"><stop
         style="stop-color:#214478;stop-opacity:0;"
         offset="0"
         id="stop1" /></linearGradient><filter
       style="color-interpolation-filters:sRGB"
       id="filter1"
       x="-2.871821e-05"
       y="-7.444374e-05"
       width="1.0000574"
       height="1.0001489"><feGaussianBlur
         stdDeviation="0.0016621913"
         id="feGaussianBlur1" /></filter></defs><g
     id="layer1"
     transform="translate(5.7062176,-67.091087)"><path
       style="fill:#3d93ce;fill-opacity:1"
       d="m 76.30751,166.87848 c -0.47002,-0.51936 -0.71029,-1.48837 -0.84843,-3.42176 l -0.19272,-2.69722 -2.5246,-0.89074 -2.52461,-0.89074 -1.78181,1.66667 c -1.46629,1.37155 -2.01513,1.66668 -3.09948,1.66668 -1.19216,0 -1.63047,-0.3128 -4.60123,-3.28355 -4.09322,-4.09323 -4.19462,-4.61481 -1.45939,-7.50691 l 1.82416,-1.92878 -1.0214,-2.13702 c -0.56177,-1.17536 -1.29283,-2.28228 -1.62458,-2.45982 -0.33174,-0.17755 -1.69452,-0.32281 -3.02838,-0.32281 -3.78465,0 -3.79479,-0.0163 -3.79479,-6.10814 0,-6.49433 0.018,-6.52198 4.34191,-6.66695 l 3.02156,-0.1013 1.04386,-2.58281 1.04385,-2.58281 -1.79258,-1.82692 c -2.83786,-2.89222 -2.80476,-3.22297 0.68085,-6.80153 4.57343,-4.6954 5.39656,-4.91638 8.25236,-2.21548 l 1.9093,1.80574 2.30325,-0.62347 c 1.26679,-0.3429 2.4682,-0.8222 2.66979,-1.06511 0.2016,-0.24291 0.41116,-1.4738 0.46569,-2.73532 0.17847,-4.12881 1.12596,-4.67988 7.38205,-4.2935 4.60531,0.28443 4.79087,0.44491 5.12092,4.42867 0.13534,1.63367 0.32546,2.91947 0.42247,2.85732 0.097,-0.0622 0.65264,0.0692 1.23472,0.29193 0.58209,0.22272 1.71196,0.486 2.51083,0.58508 1.33572,0.16567 1.59902,0.05 3.27497,-1.43846 2.6768,-2.37737 3.03338,-2.28571 7.15943,1.84033 4.23293,4.23293 4.29605,4.53526 1.54828,7.41601 l -1.91066,2.00312 0.96096,2.26383 c 0.55115,1.29843 1.25311,2.37819 1.64607,2.532 0.37682,0.1475 1.68452,0.27933 2.90602,0.29297 1.86868,0.0209 2.35822,0.16212 3.0868,0.8907 0.83413,0.83413 0.86591,1.04131 0.86591,5.64445 0,5.97252 -0.17881,6.26243 -3.81528,6.1858 -1.29708,-0.0273 -2.61402,-0.0376 -2.92654,-0.0229 -0.55484,0.0261 -2.78318,3.73166 -2.78318,4.62817 0,0.24514 0.79375,1.28497 1.76389,2.31075 1.47136,1.55575 1.76389,2.0844 1.76389,3.18764 0,1.193 -0.30454,1.62712 -3.10826,4.43084 -2.79254,2.79254 -3.24125,3.10826 -4.4176,3.10826 -1.01643,0 -1.643,-0.29819 -2.80077,-1.33292 -2.66897,-2.38531 -2.38376,-2.31897 -4.97388,-1.15686 -2.30536,1.03434 -2.339,1.06929 -2.38248,2.47502 -0.0242,0.78423 -0.0838,1.58462 -0.13229,1.77865 -0.0485,0.19402 -0.10803,0.74965 -0.13229,1.23472 -0.0243,0.48507 -0.3616,1.19944 -0.74965,1.5875 -0.63506,0.63506 -1.17593,0.70555 -5.41338,0.70555 -4.30094,0 -4.7645,-0.0626 -5.36353,-0.72455 z m 11.41808,-16.70532 c 2.35617,-1.19397 4.93343,-3.85321 6.0141,-6.20541 1.27844,-2.78269 1.46454,-7.16651 0.42164,-9.93242 -2.04785,-5.43121 -6.65486,-8.57979 -12.56326,-8.58618 -2.57751,-0.003 -3.08985,0.12016 -5.53321,1.32774 -4.19567,2.07361 -6.56937,5.23791 -7.2881,9.71555 -0.91575,5.70497 2.07654,11.35009 7.27873,13.73173 3.56147,1.63049 8.39349,1.60937 11.6701,-0.051 z m -86.97486123,1.6769 c -2.11759997,-0.74983 -4.78863697,-3.27734 -5.69844297,-5.39224 l -0.758507,-1.76319 0.09324,-35.02428 0.09324,-35.024267 1.007768,-2.05235 c 1.197035,-2.4378 3.292227,-4.121 6.207497,-4.98688 1.77568,-0.5274 5.567933,-0.57142 40.9388962,-0.47517 l 38.98194,0.10607 1.5875,0.79203 c 2.28651,1.14078 4.48878,3.33891 5.48151,5.47123 0.86141,1.85022 0.8616,1.85335 0.86505,14.12569 l 0.003,12.27507 -0.86591,0.865907 c -1.24015,1.24015 -3.43682,1.20803 -4.61899,-0.0675 l -0.8651,-0.933457 v -11.36164 c 0,-11.24254 -0.008,-11.37411 -0.80434,-12.55516 -0.44238,-0.65646 -1.19644,-1.39197 -1.67569,-1.63447 -0.68079,-0.34448 -9.18845,-0.44205 -38.90068,-0.44611 -33.3093442,-0.005 -38.1577572,0.0612 -39.0641612,0.52994 -2.21000003,1.14283 -2.10512003,-0.63967 -2.10512003,35.777887 v 33.17306 l 1.02916703,1.1521 1.029166,1.15209 21.7154452,0.17639 21.715443,0.17639 0.80331,0.80355 c 1.22919,1.22957 1.13322,3.73625 -0.18651,4.87144 l -0.98981,0.8514 -21.764356,-0.0279 C 5.6340708,152.38219 2.0085338,152.29555 0.75029477,151.85001 Z M 31.521918,132.00495 c -1.896873,-0.88774 -19.789631,-18.8768 -20.123022,-20.23132 -0.53229,-2.16263 0.611051,-4.33387 2.901914,-5.51083 0.990018,-0.50863 3.113857,-0.50845 4.103328,3.5e-4 0.423807,0.21793 3.88256,3.4723 7.686117,7.23195 3.803558,3.75964 7.05856,6.83571 7.233337,6.83571 0.174778,0 7.857778,-7.55094 17.073328,-16.77986 9.21556,-9.228917 17.18423,-17.007667 17.70818,-17.286107 1.98257,-1.0536 4.33864,-0.42199 6.06091,1.62481 1.01653,1.20808 1.22015,3.1288 0.47049,4.4381 -0.23566,0.41159 -9.17032,9.579397 -19.8548,20.372917 -13.4055,13.5423 -19.656104,19.62458 -20.16768,19.62458 -0.407738,0 -0.952762,0.0765 -1.211166,0.17006 -0.258404,0.0935 -1.104825,-0.12713 -1.880936,-0.49036 z M 9.2279398,87.538033 c -1.61261,-0.98327 -2.173606,-2.97603 -1.335197,-4.74284 0.71917,-1.51554 2.077536,-2.32827 3.8913792,-2.32827 0.993867,0 1.561083,0.27356 2.486963,1.19944 1.00069,1.00069 1.198145,1.45374 1.1916,2.73403 -0.01653,3.2331 -3.337333,4.9043 -6.2347452,3.13764 z m 12.3809232,-0.50944 c -1.351014,-1.35102 -1.556697,-2.73086 -0.664307,-4.45655 1.841202,-3.56049 7.578751,-2.18547 7.578751,1.81628 0,1.16821 -0.22694,1.66776 -1.199445,2.64027 -1.023806,1.0238 -1.442238,1.19944 -2.857499,1.19944 -1.415262,0 -1.833694,-0.17564 -2.8575,-1.19944 z m 13.797975,0.77149 c -2.583258,-1.49756 -2.591982,-5.7372 -0.01422,-6.9117 3.603107,-1.64169 7.199562,1.88712 5.436622,5.33437 -0.937041,1.83229 -3.630882,2.61591 -5.4224,1.57733 z"
       id="path1" /><text
       xml:space="preserve"
       style="font-size:61.3833px;text-align:start;writing-mode:lr-tb;direction:ltr;text-anchor:start;opacity:1;fill:#214478;fill-opacity:1;stroke-width:0.265;stroke-dasharray:none;filter:url(#filter1)"
       x="113.86313"
       y="111.60564"
       id="text1"><tspan
         id="tspan1"
         style="font-style:normal;font-variant:normal;font-weight:bold;font-stretch:normal;font-size:61.3833px;font-family:Montserrat;-inkscape-font-specification:'Montserrat Bold';opacity:1;fill:#214478;fill-opacity:1;stroke:none;stroke-width:0.265;stroke-dasharray:none;stroke-opacity:1"
         x="113.86313"
         y="111.60564">QED</tspan></text><text
       xml:space="preserve"
       style="font-style:normal;font-variant:normal;font-weight:bold;font-stretch:normal;font-size:25.0472px;font-family:'Century Gothic';-inkscape-font-specification:'Century Gothic Bold';text-align:start;writing-mode:lr-tb;direction:ltr;text-anchor:start;opacity:1;fill:#214478;fill-opacity:1;stroke:none;stroke-width:0.264999;stroke-dasharray:none;stroke-opacity:1"
       x="-6.4592957"
       y="188.53548"
       id="text3"><tspan
         id="tspan3"
         style="font-style:normal;font-variant:normal;font-weight:normal;font-stretch:normal;font-size:25.0472px;font-family:Arial;-inkscape-font-specification:Arial;stroke-width:0.265"
         x="-6.4592957"
         y="188.53548">release with confidence</tspan></text></g></svg>
